<svg xmlns="http://www.w3.org/2000/svg" version="1.1" xmlns:xlink="http://www.w3.org/1999/xlink" xmlns:svgjs="http://svgjs.dev/svgjs" width="1500" height="1500"
 viewBox="0 0 1500 1500">
 <rect width="1500" height="1500" 
 fill="#ffffff"></rect>
 <g transform="matrix(0.6666666666666666,0,0,0.6666666666666666,249.39393939393938,638.3058156793259)">
 <svg viewBox="0 0 396 88" data-background-color="#61777f" preserveAspectRatio="xMidYMid meet" height="333" width="1500" 
 xmlns="http://www.w3.org/2000/svg" 
 xmlns:xlink="http://www.w3.org/1999/xlink">
 <g id="tight-bounds" 
 transform="matrix(1,0,0,1,0.2400000000000091,0.34048688506874214)"><svg viewBox="0 0 395.52 87.31902622986249" height="87.31902622986249" width="395.52"><g><svg viewBox="0 0 519.9005869107297 114.77855224863194" height="87.31902622986249" width="395.52"><g transform="matrix(1,0,0,1,124.38058691072965,14.406849691688187)"><svg viewBox="0 0 395.52 85.96485286525557" height="85.96485286525557" width="395.52"><g id="textblocktransform">
 <svg viewBox="0 0 395.52 85.96485286525557" height="85.96485286525557" width="395.52" id="textblock"><g><svg viewBox="0 0 395.52 85.96485286525557" height="85.96485286525557" width="395.52"><g transform="matrix(1,0,0,1,0,0)"><svg width="395.52" viewBox="4.45 -32.75 193.68 42.1" height="85.96485286525557" data-palette-color="#ffffff">
 <path d="M4.45-2.2L4.45-17.75 8.55-17.75 8.55-0.4 6.65 0Q5.7 0 5.08-0.63 4.45-1.25 4.45-2.2L4.45-2.2ZM21.8 0L6.65 0 6.65-3.5 22.9-3.5Q23.15-3.3 23.3-2.85 23.45-2.4 23.45-1.85L23.45-1.85Q23.45-1 23-0.5 22.55 0 21.8 0L21.8 0ZM8.55-28.8L8.55-14.75 4.45-14.75 4.45-30.3Q4.7-30.4 5.23-30.53 5.75-30.65 6.35-30.65L6.35-30.65Q7.45-30.65 8-30.23 8.55-29.8 8.55-28.8L8.55-28.8ZM47.05-11.35L30.25-9 30.05-12.15 45.15-14.2Q44.95-16.95 43.25-18.73 41.55-20.5 38.55-20.5L38.55-20.5Q35.45-20.5 33.42-18.28 31.4-16.05 31.4-11.9L31.4-11.9 31.4-10.8Q31.75-6.8 34.02-4.73 36.3-2.65 40.25-2.65L40.25-2.65Q42.35-2.65 44.05-3.35 45.75-4.05 46.75-4.85L46.75-4.85Q47.3-4.5 47.62-4.03 47.95-3.55 47.95-2.95L47.95-2.95Q47.95-2 46.87-1.18 45.8-0.35 44.02 0.15 42.25 0.65 40.05 0.65L40.05 0.65Q36.2 0.65 33.37-0.75 30.55-2.15 29.02-4.93 27.5-7.7 27.5-11.7L27.5-11.7Q27.5-14.55 28.32-16.78 29.15-19 30.62-20.55 32.1-22.1 34.15-22.93 36.2-23.75 38.6-23.75L38.6-23.75Q41.65-23.75 43.97-22.45 46.3-21.15 47.62-18.82 48.95-16.5 48.95-13.5L48.95-13.5Q48.95-12.4 48.45-11.93 47.95-11.45 47.05-11.35L47.05-11.35ZM54.8-6.05L54.8-13.2 58.8-13.2 58.8-6.3Q58.8-4.3 59.95-3.48 61.1-2.65 63.1-2.65L63.1-2.65Q63.95-2.65 65-2.95 66.05-3.25 66.75-3.65L66.75-3.65Q67.05-3.35 67.3-2.9 67.55-2.45 67.55-1.85L67.55-1.85Q67.55-0.75 66.25-0.05 64.95 0.65 62.65 0.65L62.65 0.65Q59.15 0.65 56.97-0.9 54.8-2.45 54.8-6.05L54.8-6.05ZM65.95-19.3L56.85-19.3 56.85-22.6 67-22.6Q67.15-22.4 67.3-21.95 67.45-21.5 67.45-21L67.45-21Q67.45-20.2 67.05-19.75 66.65-19.3 65.95-19.3L65.95-19.3ZM58.8-28.35L58.8-11.7 54.8-11.7 54.8-29.8Q55.05-29.9 55.57-30.03 56.1-30.15 56.7-30.15L56.7-30.15Q57.75-30.15 58.27-29.73 58.8-29.3 58.8-28.35L58.8-28.35ZM89.64-6.15L89.64-6.15Q89.64-2.95 87.29-1.15 84.94 0.65 80.49 0.65L80.49 0.65Q76.69 0.65 74.29-0.53 71.89-1.7 71.89-3.1L71.89-3.1Q71.89-3.7 72.22-4.28 72.54-4.85 73.19-5.2L73.19-5.2Q74.54-4.25 76.34-3.45 78.14-2.65 80.44-2.65L80.44-2.65Q85.64-2.65 85.64-6.15L85.64-6.15Q85.64-7.6 84.77-8.53 83.89-9.45 82.19-9.85L82.19-9.85 78.04-10.95Q74.99-11.7 73.59-13.28 72.19-14.85 72.19-17.2L72.19-17.2Q72.19-19.85 74.34-21.8 76.49-23.75 80.89-23.75L80.89-23.75Q83.24-23.75 84.99-23.28 86.74-22.8 87.72-22.03 88.69-21.25 88.69-20.35L88.69-20.35Q88.69-19.7 88.37-19.2 88.04-18.7 87.49-18.45L87.49-18.45Q86.89-18.85 85.97-19.33 85.04-19.8 83.79-20.13 82.54-20.45 81.04-20.45L81.04-20.45Q78.84-20.45 77.49-19.6 76.14-18.75 76.14-17.2L76.14-17.2Q76.14-16.1 76.92-15.28 77.69-14.45 79.39-14.05L79.39-14.05 82.84-13.2Q86.24-12.4 87.94-10.68 89.64-8.95 89.64-6.15ZM104.79-2.75L104.79-2.75Q108.14-2.75 109.86-4.28 111.59-5.8 111.59-8.2L111.59-8.2Q111.59-10.25 110.27-11.6 108.94-12.95 106.09-13.75L106.09-13.75 101.74-15.05Q99.64-15.7 98.09-16.73 96.54-17.75 95.72-19.28 94.89-20.8 94.89-22.85L94.89-22.85Q94.89-26.7 97.69-28.88 100.49-31.05 105.14-31.05L105.14-31.05Q107.84-31.05 109.97-30.48 112.09-29.9 113.31-29 114.54-28.1 114.54-27.1L114.54-27.1Q114.54-26.45 114.19-25.93 113.84-25.4 113.29-25.1L113.29-25.1Q112.04-26.1 109.91-26.85 107.79-27.6 105.29-27.6L105.29-27.6Q102.39-27.6 100.69-26.33 98.99-25.05 98.99-22.85L98.99-22.85Q98.99-21.1 100.22-20 101.44-18.9 104.19-18.1L104.19-18.1 107.24-17.2Q111.19-16.1 113.47-14 115.74-11.9 115.74-8.2L115.74-8.2Q115.74-4.25 112.86-1.8 109.99 0.65 104.79 0.65L104.79 0.65Q101.74 0.65 99.47-0.03 97.19-0.7 95.91-1.73 94.64-2.75 94.64-3.75L94.64-3.75Q94.64-4.6 95.16-5.18 95.69-5.75 96.39-6L96.39-6Q97.54-4.9 99.64-3.83 101.74-2.75 104.79-2.75ZM141.89-14.65L141.89-9.95 137.89-9.95 137.89-14.55Q137.89-17.55 136.21-19 134.54-20.45 131.89-20.45L131.89-20.45Q129.94-20.45 128.26-19.7 126.59-18.95 125.44-17.9L125.44-17.9 124.69-21.15Q125.89-22 127.86-22.88 129.84-23.75 132.44-23.75L132.44-23.75Q136.59-23.75 139.24-21.5 141.89-19.25 141.89-14.65L141.89-14.65ZM121.94-1.55L121.94-13.2 125.94-13.2 125.94-0.1Q125.69 0 125.19 0.13 124.69 0.25 124.09 0.25L124.09 0.25Q123.04 0.25 122.49-0.18 121.94-0.6 121.94-1.55L121.94-1.55ZM137.89-1.55L137.89-13.15 141.89-13.1 141.89-0.1Q141.64 0 141.11 0.13 140.59 0.25 140.04 0.25L140.04 0.25Q138.94 0.25 138.41-0.18 137.89-0.6 137.89-1.55L137.89-1.55ZM125.94-30.95L125.94-11.25 121.94-11.25 121.94-32.4Q122.19-32.5 122.71-32.63 123.24-32.75 123.84-32.75L123.84-32.75Q124.89-32.75 125.41-32.33 125.94-31.9 125.94-30.95L125.94-30.95ZM170.84-11.55L170.84-11.55Q170.84-7.85 169.44-5.1 168.04-2.35 165.49-0.85 162.94 0.65 159.49 0.65L159.49 0.65Q156.04 0.65 153.46-0.85 150.89-2.35 149.49-5.1 148.09-7.85 148.09-11.55L148.09-11.55Q148.09-15.3 149.51-18.03 150.94-20.75 153.51-22.25 156.09-23.75 159.49-23.75L159.49-23.75Q162.89-23.75 165.44-22.25 167.99-20.75 169.41-18.03 170.84-15.3 170.84-11.55ZM159.49-20.45L159.49-20.45Q156.14-20.45 154.16-18.07 152.19-15.7 152.19-11.55L152.19-11.55Q152.19-7.35 154.11-5 156.04-2.65 159.49-2.65L159.49-2.65Q162.89-2.65 164.81-5.03 166.74-7.4 166.74-11.55L166.74-11.55Q166.74-15.7 164.81-18.07 162.89-20.45 159.49-20.45ZM186.88 0.65L186.88 0.65Q190.18 0.65 192.73-0.7 195.28-2.05 196.71-4.78 198.13-7.5 198.13-11.6L198.13-11.6Q198.13-15.85 196.56-18.53 194.98-21.2 192.31-22.48 189.63-23.75 186.33-23.75L186.33-23.75Q183.93-23.75 182.06-23.13 180.18-22.5 178.83-21.75L178.83-21.75Q177.73-21.1 177.38-20.5 177.03-19.9 177.03-18.9L177.03-18.9 177.03-2.4 181.03-2.4 181.03-19Q182.03-19.55 183.28-20 184.53-20.45 186.33-20.45L186.33-20.45Q188.38-20.45 190.16-19.6 191.93-18.75 193.01-16.82 194.08-14.9 194.08-11.6L194.08-11.6Q194.08-6.9 191.96-4.78 189.83-2.65 186.33-2.65L186.33-2.65Q184.18-2.65 182.66-3.38 181.13-4.1 180.13-5.05L180.13-5.05 180.13-1.35Q180.98-0.6 182.86 0.03 184.73 0.65 186.88 0.65ZM181.03 9L181.03-3.75 177.03-3.85 177.03 7.5Q177.03 8.45 177.58 8.9 178.13 9.35 179.18 9.35L179.18 9.35Q179.78 9.35 180.28 9.22 180.78 9.1 181.03 9L181.03 9Z" opacity="1" transform="matrix(1,0,0,1,0,0)" fill="#000000" class="wordmark-text-0" data-fill-palette-color="primary" id="text-0"></path></svg></g></svg></g></svg></g></svg></g><g><svg viewBox="0 0 104.08634830571157 114.77855224863194" height="114.77855224863194" width="104.08634830571157"><g><svg xmlns="http://www.w3.org/2000/svg" data-name="Layer 1" viewBox="6.017941525364105 1.49 87.98209521535851 97.02000000000001" x="0" y="0" height="114.77855224863194" width="104.08634830571157" class="icon-icon-0" data-fill-palette-color="accent" id="icon-0"><path d="M69.57 41.35A12.75 12.75 0 0 0 79.69 46.4H80.56A11.61 11.61 0 0 0 89.82 40.67 12.37 12.37 0 0 0 90.51 29.24L80 5.78A7.29 7.29 0 0 0 73.36 1.49H25.47A7.29 7.29 0 0 0 18.83 5.78L8.29 29.22A12.37 12.37 0 0 0 9 40.65 11.61 11.61 0 0 0 18.26 46.38H19.13A12.75 12.75 0 0 0 29.25 41.32 12.75 12.75 0 0 0 39.36 46.4 12.59 12.59 0 0 0 49.36 41.46 12.59 12.59 0 0 0 59.36 46.4 12.74 12.74 0 0 0 69.57 41.35M50.75 38A1.5 1.5 0 0 0 48.06 38 9.63 9.63 0 0 1 39.36 43.43 9.73 9.73 0 0 1 30.59 37.85 1.5 1.5 0 0 0 27.88 37.85 9.73 9.73 0 0 1 19.11 43.43H18.44A8.65 8.65 0 0 1 11.55 39.15 9.37 9.37 0 0 1 11 30.45L21.57 7A4.29 4.29 0 0 1 25.47 4.48H73.33A4.29 4.29 0 0 1 77.23 7L87.77 30.45A9.37 9.37 0 0 1 87.25 39.11 8.65 8.65 0 0 1 80.36 43.39H79.69A9.74 9.74 0 0 1 70.92 37.81 1.5 1.5 0 0 0 68.21 37.81 9.73 9.73 0 0 1 59.45 43.39 9.63 9.63 0 0 1 50.75 38" fill="#000000" data-fill-palette-color="accent"></path><path d="M57.09 76.38A1.5 1.5 0 0 0 55.59 74.88H26.45V49.73A1.5 1.5 0 0 0 23.45 49.73V76.38A1.5 1.5 0 0 0 24.95 77.88H55.59A1.5 1.5 0 0 0 57.09 76.38" fill="#000000" data-fill-palette-color="accent"></path><path d="M11.92 77.88H15.65A1.5 1.5 0 0 0 17.15 76.38V50.46A1.5 1.5 0 0 0 14.15 50.46V74.88H11.92A6.15 6.15 0 0 0 11.92 87.17H52.41A1.5 1.5 0 0 0 52.41 84.17H11.92A3.15 3.15 0 0 1 11.92 77.88" fill="#000000" data-fill-palette-color="accent"></path><path d="M61 98.51H90.15A3.86 3.86 0 0 0 94 94.66V88.92A18.22 18.22 0 0 0 84.83 73.07 13 13 0 1 0 66.34 73.07 18.22 18.22 0 0 0 57.17 88.92V94.66A3.86 3.86 0 0 0 61 98.51M60.14 88.91A15.24 15.24 0 0 1 69.61 74.77 1.5 1.5 0 0 0 69.89 72.15 10 10 0 1 1 81.22 72.15 1.5 1.5 0 0 0 81.5 74.77 15.24 15.24 0 0 1 91 88.92V94.66A0.86 0.86 0 0 1 90.14 95.52H61A0.86 0.86 0 0 1 60.14 94.66Z" fill="#000000" data-fill-palette-color="accent"></path></svg></g></svg></g></svg></g><defs></defs></svg><rect width="395.52" height="87.31902622986249" fill="none" stroke="none" ></rect></g></svg></g></svg>